<svg width="65" height="40" viewBox="0 0 65 40" fill="none" xmlns="http://www.w3.org/2000/svg">
    <path d="M0 18.9231C0 17.8185 0.895431 16.9231 2 16.9231H11.6842C12.7888 16.9231 13.6842 17.8185 13.6842 18.9231V40H0V18.9231Z" fill="currentColor" fill-opacity="0.8"/>
    <path d="M17.1052 11.2308C17.1052 10.1263 18.0007 9.23083 19.1052 9.23083H28.7894C29.894 9.23083 30.7894 10.1263 30.7894 11.2308V40.0001H17.1052V11.2308Z" fill="currentColor" fill-opacity="0.8"/>
    <path d="M34.2104 2C34.2104 0.895431 35.1059 0 36.2104 0H45.8947C46.9992 0 47.8947 0.895431 47.8947 2V40H34.2104V2Z" fill="currentColor" fill-opacity="0.8"/>
    <path d="M51.3158 18.9231C51.3158 17.8185 52.2112 16.9231 53.3158 16.9231H63C64.1046 16.9231 65 17.8185 65 18.9231V40H51.3158V18.9231Z" fill="currentColor" fill-opacity="0.8"/>
</svg>
