<svg width="45" height="45" viewBox="0 0 45 45" fill="none" xmlns="http://www.w3.org/2000/svg">
    <path d="M22.5 11.25V33.75M16.875 28.4659L18.5229 29.7019C20.7195 31.3494 24.2809 31.3494 26.4775 29.7019C28.6742 28.0543 28.6742 25.3832 26.4775 23.7356C25.3791 22.9118 23.9394 22.4999 22.4998 22.5C21.1405 22.5001 19.7816 22.0882 18.7446 21.2644C16.6706 19.6169 16.6706 16.9457 18.7446 15.2982C20.8185 13.6507 24.181 13.6507 26.2549 15.2982L27.0329 15.9162M39.375 22.5C39.375 31.8198 31.8198 39.375 22.5 39.375C13.1802 39.375 5.625 31.8198 5.625 22.5C5.625 13.1802 13.1802 5.625 22.5 5.625C31.8198 5.625 39.375 13.1802 39.375 22.5Z" stroke="currentColor" stroke-opacity="0.8" stroke-width="1.5" stroke-linecap="round" stroke-linejoin="round"/>
</svg>
