<svg width="80" height="80" viewBox="0 0 80 80" fill="none" xmlns="http://www.w3.org/2000/svg">
    <path d="M25 25H22.5C18.3579 25 15 28.3579 15 32.5V57.5C15 61.6421 18.3579 65 22.5 65H47.5C51.6421 65 55 61.6421 55 57.5V32.5C55 28.3579 51.6421 25 47.5 25H45M45 15L35 5M35 5L25 15M35 5L35 42.5M55 35H57.5C61.6421 35 65 38.3579 65 42.5V67.5C65 71.6421 61.6421 75 57.5 75H32.5C28.3579 75 25 71.6421 25 67.5V65" stroke="#D1D8E0" stroke-opacity="0.8" stroke-width="1.5" stroke-linecap="round" stroke-linejoin="round"/>
</svg>
