<svg width="45" height="45" viewBox="0 0 45 45" fill="none" xmlns="http://www.w3.org/2000/svg">
    <path d="M7.03125 5.625V26.7188C7.03125 29.0487 8.92005 30.9375 11.25 30.9375H15.4688M7.03125 5.625H4.21875M7.03125 5.625L37.9688 5.625M37.9688 5.625H40.7812M37.9688 5.625V26.7188C37.9688 29.0487 36.08 30.9375 33.75 30.9375H29.5312M15.4688 30.9375H29.5312M15.4688 30.9375L13.5938 36.5625M29.5312 30.9375L31.4062 36.5625M31.4062 36.5625L32.3438 39.375M31.4062 36.5625H13.5938M13.5938 36.5625L12.6562 39.375M14.0625 22.5L19.6875 16.875L23.7142 20.9017C25.6016 18.1931 28.0695 15.9192 30.9375 14.2601" stroke="currentColor" stroke-opacity="0.8" stroke-width="1.5" stroke-linecap="round" stroke-linejoin="round"/>
</svg>
