<svg width="45" height="45" viewBox="0 0 45 45" fill="none" xmlns="http://www.w3.org/2000/svg">
    <path d="M39.375 22.5C39.375 20.17 37.4862 18.2812 35.1562 18.2812H28.125C28.125 21.3879 25.6066 23.9062 22.5 23.9062C19.3934 23.9062 16.875 21.3879 16.875 18.2812H9.84375C7.5138 18.2812 5.625 20.17 5.625 22.5M39.375 22.5V33.75C39.375 36.08 37.4862 37.9688 35.1562 37.9688H9.84375C7.5138 37.9688 5.625 36.08 5.625 33.75L5.625 22.5M39.375 22.5V16.875M5.625 22.5V16.875M39.375 16.875C39.375 14.545 37.4862 12.6562 35.1562 12.6562H9.84375C7.5138 12.6562 5.625 14.545 5.625 16.875M39.375 16.875V11.25C39.375 8.92005 37.4862 7.03125 35.1562 7.03125L9.84375 7.03125C7.5138 7.03125 5.625 8.92005 5.625 11.25V16.875" stroke="currentColor" stroke-width="1.5" stroke-linecap="round" stroke-linejoin="round"/>
</svg>
