<svg width="45" height="45" viewBox="0 0 45 45" fill="none" xmlns="http://www.w3.org/2000/svg">
    <path d="M30.938 35.1562H14.063M30.938 35.1562C34.0446 35.1562 36.563 37.6746 36.563 40.7812H8.43801C8.43801 37.6746 10.9564 35.1562 14.063 35.1562M30.938 35.1562V28.8281C30.938 27.6631 29.9936 26.7188 28.8286 26.7188H27.1943M14.063 35.1562V28.8281C14.063 27.6631 15.0074 26.7188 16.1724 26.7188H17.8067M27.1943 26.7188H17.8067M27.1943 26.7188C26.1681 24.9447 25.5183 22.9256 25.3541 20.7707M17.8067 26.7188C18.8329 24.9447 19.4828 22.9256 19.6469 20.7707M9.84426 7.94317C8.00245 8.211 6.17931 8.53641 4.37671 8.91752C5.22105 13.919 9.366 17.799 14.4936 18.2395M9.84426 7.94317V8.4375C9.84426 12.3896 11.6557 15.9186 14.4936 18.2395M9.84426 7.94317V5.10167C13.9794 4.5197 18.2048 4.21875 22.5005 4.21875C26.7962 4.21875 31.0216 4.5197 35.1568 5.10167V7.94317M14.4936 18.2395C15.9703 19.4472 17.7249 20.3278 19.6469 20.7707M35.1568 7.94317V8.4375C35.1568 12.3896 33.3453 15.9186 30.5074 18.2395M35.1568 7.94317C36.9986 8.211 38.8217 8.53641 40.6243 8.91752C39.78 13.919 35.635 17.799 30.5074 18.2395M30.5074 18.2395C29.0307 19.4472 27.2761 20.3278 25.3541 20.7707M25.3541 20.7707C24.437 20.9821 23.4818 21.0938 22.5005 21.0938C21.5192 21.0938 20.564 20.9821 19.6469 20.7707" stroke="currentColor" stroke-opacity="0.8" stroke-width="1.5" stroke-linecap="round" stroke-linejoin="round"/>
</svg>
